<?xml version="1.0" encoding="UTF-8"?>
<svg xmlns="http://www.w3.org/2000/svg" xmlns:xlink="http://www.w3.org/1999/xlink" width="500" height="240" viewBox="0 0 500 240" version="1.1">
<g id="surface1">
<path style="fill-rule:nonzero;fill:rgb(69.803923%,85.09804%,100%);fill-opacity:1;stroke-width:1;stroke-linecap:butt;stroke-linejoin:round;stroke:rgb(0%,0%,0%);stroke-opacity:1;stroke-miterlimit:10;" d="M 41.5 35.776367 L 139.512695 35.776367 L 139.512695 160.293945 L 41.5 160.293945 Z M 41.5 35.776367 " transform="matrix(1.333333,0,0,1.333333,-13.333333,-18.666667)"/>
<path style="fill-rule:nonzero;fill:rgb(40.000001%,74.901962%,100%);fill-opacity:1;stroke-width:1;stroke-linecap:butt;stroke-linejoin:round;stroke:rgb(0%,0%,0%);stroke-opacity:1;stroke-miterlimit:10;" d="M 176.250977 35.776367 L 235.249023 35.776367 L 235.249023 160.293945 L 176.250977 160.293945 Z M 176.250977 35.776367 " transform="matrix(1.333333,0,0,1.333333,-13.333333,-18.666667)"/>
<path style="fill-rule:nonzero;fill:rgb(40.000001%,74.901962%,100%);fill-opacity:1;stroke-width:1;stroke-linecap:butt;stroke-linejoin:round;stroke:rgb(0%,0%,0%);stroke-opacity:1;stroke-miterlimit:10;" d="M 260.397461 37.414062 L 358.407227 37.414062 L 358.407227 97.355469 L 260.397461 97.355469 Z M 260.397461 37.414062 " transform="matrix(1.333333,0,0,1.333333,-13.333333,-18.666667)"/>
<path style="fill-rule:nonzero;fill:rgb(100%,100%,100%);fill-opacity:1;stroke-width:1;stroke-linecap:butt;stroke-linejoin:round;stroke:rgb(0%,0%,0%);stroke-opacity:1;stroke-dasharray:1,3;stroke-miterlimit:10;" d="M 89.511719 35.776367 L 99.510742 35.776367 L 99.510742 160.293945 L 89.511719 160.293945 Z M 89.511719 35.776367 " transform="matrix(1.333333,0,0,1.333333,-13.333333,-18.666667)"/>
<path style="fill-rule:nonzero;fill:rgb(100%,100%,100%);fill-opacity:1;stroke-width:1;stroke-linecap:butt;stroke-linejoin:round;stroke:rgb(0%,0%,0%);stroke-opacity:1;stroke-dasharray:1,3;stroke-miterlimit:10;" d="M 41.5 110.342773 L 139.512695 110.342773 L 139.512695 120.333008 L 41.5 120.333008 Z M 41.5 110.342773 " transform="matrix(1.333333,0,0,1.333333,-13.333333,-18.666667)"/>
<path style="fill-rule:nonzero;fill:rgb(0%,0%,0%);fill-opacity:1;stroke-width:1;stroke-linecap:butt;stroke-linejoin:round;stroke:rgb(0%,0%,0%);stroke-opacity:1;stroke-miterlimit:10;" d="M 89.511719 110.342773 L 99.510742 110.342773 L 99.510742 120.333008 L 89.511719 120.333008 Z M 89.511719 110.342773 " transform="matrix(1.333333,0,0,1.333333,-13.333333,-18.666667)"/>
<path style="fill-rule:nonzero;fill:rgb(100%,100%,100%);fill-opacity:1;stroke-width:1;stroke-linecap:butt;stroke-linejoin:round;stroke:rgb(0%,0%,0%);stroke-opacity:1;stroke-dasharray:1,3;stroke-miterlimit:10;" d="M 176.250977 110.342773 L 235.249023 110.342773 L 235.249023 120.333008 L 176.250977 120.333008 Z M 176.250977 110.342773 " transform="matrix(1.333333,0,0,1.333333,-13.333333,-18.666667)"/>
<path style="fill-rule:nonzero;fill:rgb(100%,100%,100%);fill-opacity:1;stroke-width:1;stroke-linecap:butt;stroke-linejoin:round;stroke:rgb(0%,0%,0%);stroke-opacity:1;stroke-dasharray:1,3;stroke-miterlimit:10;" d="M 308.40625 37.414062 L 318.405273 37.414062 L 318.405273 97.355469 L 308.40625 97.355469 Z M 308.40625 37.414062 " transform="matrix(1.333333,0,0,1.333333,-13.333333,-18.666667)"/>
<path style="fill:none;stroke-width:1;stroke-linecap:butt;stroke-linejoin:round;stroke:rgb(0%,0%,0%);stroke-opacity:1;stroke-miterlimit:10;" d="M 176.5 165.289062 L 176.5 167.788086 C 176.5 169.452148 179.831055 170.28418 186.499023 170.28418 L 196.500977 170.28418 C 203.168945 170.28418 206.5 171.116211 206.5 172.780273 L 206.5 174.03125 C 206.5 174.863281 206.5 174.450195 206.5 172.780273 L 206.5 171.535156 C 206.5 170.700195 209.831055 170.28418 216.499023 170.28418 L 226.500977 170.28418 C 233.168945 170.28418 236.5 169.452148 236.5 167.788086 L 236.5 165.289062 " transform="matrix(1.333333,0,0,1.333333,-13.333333,-18.666667)"/>
<path style="fill:none;stroke-width:1;stroke-linecap:butt;stroke-linejoin:round;stroke:rgb(0%,0%,0%);stroke-opacity:1;stroke-miterlimit:10;" d="M 361 97.355469 L 363.499023 97.355469 C 365.168945 97.355469 366.000977 94.024414 366.000977 87.362305 L 366.000977 77.375 C 366.000977 70.71582 366.833008 67.381836 368.5 67.381836 L 369.750977 67.381836 C 370.583008 67.381836 370.166992 67.381836 368.5 67.381836 L 367.249023 67.381836 C 366.416992 67.381836 366.000977 64.053711 366.000977 57.394531 L 366.000977 47.401367 C 366.000977 40.742188 365.168945 37.414062 363.499023 37.414062 L 361 37.414062 " transform="matrix(1.333333,0,0,1.333333,-13.333333,-18.666667)"/>
<path style="fill:none;stroke-width:1;stroke-linecap:butt;stroke-linejoin:round;stroke:rgb(0%,0%,0%);stroke-opacity:1;stroke-miterlimit:10;" d="M 42.000977 165.289062 L 42.000977 167.788086 C 42.000977 169.452148 44.708008 170.28418 50.125 170.28418 L 82.629883 170.28418 C 88.046875 170.28418 90.753906 171.116211 90.753906 172.780273 L 90.753906 174.03125 C 90.753906 174.863281 90.753906 174.450195 90.753906 172.780273 L 90.753906 171.535156 C 90.753906 170.700195 93.463867 170.28418 98.883789 170.28418 L 131.382812 170.28418 C 136.799805 170.28418 139.512695 169.452148 139.512695 167.788086 L 139.512695 165.289062 " transform="matrix(1.333333,0,0,1.333333,-13.333333,-18.666667)"/>
<path style="fill:none;stroke-width:1;stroke-linecap:butt;stroke-linejoin:round;stroke:rgb(0%,0%,0%);stroke-opacity:1;stroke-miterlimit:10;" d="M 36.72168 160.293945 L 34.222656 160.293945 C 32.555664 160.293945 31.723633 157.329102 31.723633 151.402344 L 31.723633 106.929688 C 31.723633 101 30.891602 98.035156 29.22168 98.035156 L 27.973633 98.035156 C 27.141602 98.035156 27.554688 98.035156 29.22168 98.035156 L 30.472656 98.035156 C 31.304688 98.035156 31.723633 95.070312 31.723633 89.140625 L 31.723633 44.670898 C 31.723633 38.741211 32.555664 35.776367 34.222656 35.776367 L 36.72168 35.776367 " transform="matrix(1.333333,0,0,1.333333,-13.333333,-18.666667)"/>
<path style=" stroke:none;fill-rule:nonzero;fill:rgb(0%,0%,0%);fill-opacity:1;" d="M 110.332031 223.042969 C 109.855469 223.792969 109.6875 223.957031 109.480469 223.957031 C 109.375 223.957031 109.3125 223.875 109.3125 223.75 C 109.3125 223.625 109.375 223.355469 109.605469 222.6875 L 110.019531 221.4375 C 110.207031 220.875 110.355469 220.332031 110.355469 220.042969 C 110.355469 219.457031 110.082031 219.125 109.480469 219.125 C 109.042969 219.125 108.605469 219.3125 108.269531 219.625 C 107.832031 220.042969 107.625 220.3125 106.8125 221.519531 L 107.542969 219.125 C 106.769531 219.3125 105.832031 219.4375 105.167969 219.457031 L 105.167969 219.792969 C 105.667969 219.792969 105.8125 219.832031 105.8125 220.0625 C 105.8125 220.207031 105.667969 220.769531 105.269531 222.207031 L 104.605469 224.667969 L 106.042969 224.667969 C 106.605469 222.582031 107.042969 221.605469 107.792969 220.625 C 108.019531 220.3125 108.394531 219.980469 108.625 219.980469 C 108.769531 219.980469 108.917969 220.042969 108.917969 220.230469 C 108.917969 220.269531 108.875 220.457031 108.832031 220.582031 L 108.167969 222.5625 C 107.980469 223.125 107.855469 223.75 107.855469 224.0625 C 107.855469 224.542969 108.167969 224.769531 108.667969 224.769531 C 109.394531 224.769531 109.9375 224.375 110.605469 223.207031 Z M 110.332031 223.042969 "/>
<path style=" stroke:none;fill-rule:nonzero;fill:rgb(0%,0%,0%);fill-opacity:1;" d="M 54.644531 41.980469 L 54.644531 42.269531 L 55.042969 42.3125 C 55.4375 42.355469 55.542969 42.480469 55.542969 42.707031 C 55.542969 42.855469 55.480469 43.230469 55.417969 43.457031 L 53.980469 48.6875 C 53.792969 49.394531 53.582031 49.625 53 49.707031 L 53 50 L 56.519531 50 L 56.519531 49.707031 C 55.832031 49.644531 55.667969 49.5625 55.667969 49.1875 C 55.667969 49.019531 55.707031 48.792969 55.875 48.207031 L 56.5 46.019531 L 56.855469 46.019531 L 58.144531 50 L 60.5625 50 L 60.5625 49.707031 C 59.894531 49.644531 59.707031 49.519531 59.519531 48.9375 L 58.5 45.875 C 59.0625 45.769531 59.375 45.6875 59.667969 45.5 C 60.375 45.0625 60.8125 44.519531 60.8125 43.6875 C 60.8125 42.542969 59.855469 41.980469 58.082031 41.980469 Z M 57.292969 43 C 57.4375 42.457031 57.644531 42.355469 58.019531 42.355469 C 58.644531 42.355469 59 42.769531 59 43.5 C 59 44.292969 58.667969 45.019531 58.125 45.355469 C 57.8125 45.542969 57.355469 45.625 56.605469 45.644531 Z M 57.292969 43 "/>
<path style=" stroke:none;fill-rule:nonzero;fill:rgb(0%,0%,0%);fill-opacity:1;" d="M 230.019531 41.980469 L 230.019531 42.269531 L 230.417969 42.3125 C 230.769531 42.375 230.894531 42.480469 230.894531 42.707031 C 230.894531 42.894531 230.875 43.144531 230.75 43.605469 L 229.332031 48.707031 C 229.125 49.5 228.957031 49.605469 228.332031 49.707031 L 228.332031 50 L 231.855469 50 L 231.855469 49.707031 C 231.1875 49.667969 231 49.542969 231 49.230469 C 231 49.105469 231.0625 48.730469 231.125 48.519531 L 231.769531 46.144531 C 232.1875 46.1875 232.417969 46.1875 232.75 46.1875 C 233.855469 46.1875 234.730469 45.917969 235.3125 45.394531 C 235.769531 45 236.019531 44.457031 236.019531 43.832031 C 236.019531 42.625 235.167969 41.980469 233.394531 41.980469 Z M 232.625 43 C 232.769531 42.457031 232.832031 42.355469 233.269531 42.355469 C 233.894531 42.355469 234.269531 42.769531 234.269531 43.394531 C 234.269531 43.917969 234.144531 44.605469 233.875 45.042969 C 233.542969 45.5625 233.144531 45.769531 232.394531 45.769531 C 232.25 45.769531 232.105469 45.769531 231.894531 45.75 Z M 232.625 43 "/>
<path style=" stroke:none;fill-rule:nonzero;fill:rgb(0%,0%,0%);fill-opacity:1;" d="M 347.660156 49.242188 L 345.558594 51.015625 L 345.722656 51.304688 C 346.390625 51.035156 346.703125 50.972656 347.097656 50.972656 C 347.453125 50.972656 347.722656 51.035156 348.347656 51.222656 C 349.078125 51.453125 349.472656 51.535156 349.972656 51.535156 C 351.285156 51.535156 352.140625 51.117188 353.078125 49.742188 L 352.828125 49.515625 C 352.140625 50.242188 351.703125 50.453125 350.972656 50.453125 C 350.640625 50.453125 350.390625 50.410156 349.953125 50.265625 C 349.078125 49.953125 348.246094 49.867188 347.722656 49.847656 L 347.722656 49.804688 L 348.246094 49.242188 C 349.933594 49.160156 350.621094 48.828125 351.660156 47.828125 C 352.847656 46.679688 353.515625 45.097656 353.515625 43.617188 C 353.515625 41.992188 352.285156 40.804688 350.621094 40.804688 C 349.578125 40.804688 348.558594 41.222656 347.703125 41.929688 C 346.433594 42.992188 345.558594 44.703125 345.558594 46.492188 C 345.558594 47.828125 346.285156 48.679688 347.496094 49.117188 C 347.578125 49.160156 347.621094 49.160156 347.683594 49.179688 Z M 351.785156 42.660156 C 351.785156 43.929688 351.203125 45.929688 350.535156 47.179688 C 349.996094 48.140625 349.308594 48.828125 348.496094 48.828125 C 347.746094 48.828125 347.265625 48.285156 347.265625 47.410156 C 347.265625 46.078125 347.910156 43.867188 348.640625 42.660156 C 349.203125 41.679688 349.828125 41.222656 350.578125 41.222656 C 351.285156 41.222656 351.785156 41.804688 351.785156 42.660156 Z M 351.785156 42.660156 "/>
<path style=" stroke:none;fill-rule:nonzero;fill:rgb(0%,0%,0%);fill-opacity:1;" d="M 358.636719 39.765625 L 358.574219 38.410156 L 354.074219 38.410156 L 354.035156 39.765625 L 354.222656 39.765625 C 354.367188 38.890625 354.597656 38.742188 355.429688 38.742188 L 355.929688 38.742188 L 355.929688 42.722656 C 355.929688 43.429688 355.824219 43.515625 355.160156 43.554688 L 355.160156 43.703125 L 357.511719 43.703125 L 357.511719 43.554688 C 356.847656 43.515625 356.742188 43.429688 356.742188 42.804688 L 356.742188 38.742188 L 357.199219 38.742188 C 358.054688 38.742188 358.261719 38.890625 358.429688 39.765625 Z M 358.636719 39.765625 "/>
<path style=" stroke:none;fill-rule:nonzero;fill:rgb(0%,0%,0%);fill-opacity:1;" d="M 115.8125 11.9375 C 115.8125 11.5 115.4375 11.125 114.980469 11.125 C 114.582031 11.125 114.207031 11.5 114.207031 11.894531 C 114.207031 12.375 114.542969 12.730469 115 12.730469 C 115.457031 12.730469 115.8125 12.375 115.8125 11.9375 Z M 115.25 17.625 L 115.082031 17.875 C 114.769531 18.332031 114.5 18.605469 114.3125 18.605469 C 114.230469 18.605469 114.144531 18.5625 114.144531 18.417969 C 114.144531 18.292969 114.1875 18 114.25 17.792969 L 115.332031 13.792969 C 114.6875 13.9375 113.832031 14.0625 112.917969 14.125 L 112.917969 14.457031 L 113.082031 14.457031 C 113.4375 14.457031 113.625 14.5625 113.625 14.792969 C 113.625 14.894531 113.605469 15.042969 113.519531 15.332031 L 112.875 17.769531 C 112.75 18.207031 112.6875 18.519531 112.6875 18.6875 C 112.6875 19.207031 113.019531 19.4375 113.5 19.4375 C 114.230469 19.4375 114.730469 19.082031 115.519531 17.792969 Z M 115.25 17.625 "/>
<path style=" stroke:none;fill-rule:nonzero;fill:rgb(0%,0%,0%);fill-opacity:1;" d="M 184.3125 136.027344 C 183.894531 136.671875 183.667969 136.921875 183.457031 136.921875 C 183.3125 136.921875 183.292969 136.796875 183.292969 136.671875 C 183.292969 136.527344 183.4375 135.984375 183.582031 135.445312 L 184.519531 132.234375 L 183.105469 132.234375 C 182.457031 134.652344 182.105469 135.296875 181.394531 136.214844 C 181.042969 136.671875 180.769531 136.882812 180.5625 136.882812 C 180.394531 136.882812 180.269531 136.777344 180.269531 136.570312 C 180.269531 136.402344 180.292969 136.257812 180.457031 135.714844 L 181.582031 132.089844 C 180.855469 132.234375 179.667969 132.402344 179.0625 132.421875 L 179.0625 132.757812 C 179.625 132.777344 179.75 132.902344 179.75 133.089844 C 179.75 133.277344 179.644531 133.632812 179.5625 133.984375 L 179.105469 135.527344 C 178.9375 136.109375 178.855469 136.484375 178.855469 136.796875 C 178.855469 137.421875 179.1875 137.734375 179.792969 137.734375 C 180.5625 137.734375 181.019531 137.359375 182.167969 135.695312 C 181.957031 136.359375 181.855469 136.671875 181.855469 137.027344 C 181.855469 137.507812 182.144531 137.734375 182.667969 137.734375 C 183.394531 137.734375 183.957031 137.257812 184.582031 136.195312 Z M 184.3125 136.027344 "/>
<path style=" stroke:none;fill-rule:nonzero;fill:rgb(0%,0%,0%);fill-opacity:1;" d="M 406.472656 11.9375 C 406.472656 11.5 406.097656 11.125 405.640625 11.125 C 405.246094 11.125 404.871094 11.5 404.871094 11.894531 C 404.871094 12.375 405.203125 12.730469 405.660156 12.730469 C 406.121094 12.730469 406.472656 12.375 406.472656 11.9375 Z M 405.910156 17.625 L 405.746094 17.875 C 405.433594 18.332031 405.160156 18.605469 404.972656 18.605469 C 404.890625 18.605469 404.808594 18.5625 404.808594 18.417969 C 404.808594 18.292969 404.847656 18 404.910156 17.792969 L 405.996094 13.792969 C 405.347656 13.9375 404.496094 14.0625 403.578125 14.125 L 403.578125 14.457031 L 403.746094 14.457031 C 404.097656 14.457031 404.285156 14.5625 404.285156 14.792969 C 404.285156 14.894531 404.265625 15.042969 404.183594 15.332031 L 403.535156 17.769531 C 403.410156 18.207031 403.347656 18.519531 403.347656 18.6875 C 403.347656 19.207031 403.683594 19.4375 404.160156 19.4375 C 404.890625 19.4375 405.390625 19.082031 406.183594 17.792969 Z M 405.910156 17.625 "/>
<path style=" stroke:none;fill-rule:nonzero;fill:rgb(0%,0%,0%);fill-opacity:1;" d="M 312.171875 136.695312 C 311.757812 137.339844 311.527344 137.589844 311.320312 137.589844 C 311.171875 137.589844 311.152344 137.464844 311.152344 137.339844 C 311.152344 137.195312 311.296875 136.652344 311.445312 136.109375 L 312.382812 132.902344 L 310.964844 132.902344 C 310.320312 135.320312 309.964844 135.964844 309.257812 136.882812 C 308.902344 137.339844 308.632812 137.546875 308.421875 137.546875 C 308.257812 137.546875 308.132812 137.445312 308.132812 137.234375 C 308.132812 137.070312 308.152344 136.921875 308.320312 136.382812 L 309.445312 132.757812 C 308.714844 132.902344 307.527344 133.070312 306.921875 133.089844 L 306.921875 133.421875 C 307.484375 133.445312 307.609375 133.570312 307.609375 133.757812 C 307.609375 133.945312 307.507812 134.296875 307.421875 134.652344 L 306.964844 136.195312 C 306.796875 136.777344 306.714844 137.152344 306.714844 137.464844 C 306.714844 138.089844 307.046875 138.402344 307.652344 138.402344 C 308.421875 138.402344 308.882812 138.027344 310.027344 136.359375 C 309.820312 137.027344 309.714844 137.339844 309.714844 137.695312 C 309.714844 138.171875 310.007812 138.402344 310.527344 138.402344 C 311.257812 138.402344 311.820312 137.921875 312.445312 136.859375 Z M 312.171875 136.695312 "/>
<path style=" stroke:none;fill-rule:nonzero;fill:rgb(0%,0%,0%);fill-opacity:1;" d="M 15.824219 113.042969 C 15.761719 113.105469 15.71875 113.1875 15.675781 113.269531 C 15.40625 113.707031 15.136719 113.957031 14.96875 113.957031 C 14.863281 113.957031 14.78125 113.894531 14.78125 113.75 C 14.78125 113.519531 14.824219 113.4375 15.03125 112.8125 L 15.574219 111.292969 C 15.761719 110.769531 15.863281 110.292969 15.863281 109.980469 C 15.863281 109.480469 15.511719 109.125 14.925781 109.125 C 14.074219 109.125 13.53125 109.605469 12.550781 111.1875 C 12.800781 110.5625 12.863281 110.269531 12.863281 109.917969 C 12.863281 109.417969 12.574219 109.125 12.050781 109.125 C 11.574219 109.125 11.074219 109.4375 10.699219 109.8125 C 10.363281 110.144531 10.03125 110.625 9.449219 111.519531 L 9.425781 111.519531 L 10.199219 109.125 C 9.425781 109.3125 9.15625 109.355469 7.78125 109.457031 L 7.78125 109.792969 L 8.011719 109.792969 C 8.324219 109.792969 8.46875 109.894531 8.46875 110.082031 C 8.46875 110.269531 8.363281 110.707031 8.03125 111.875 L 7.238281 114.667969 L 8.699219 114.667969 C 9.324219 112.394531 9.761719 111.375 10.449219 110.5625 C 10.71875 110.25 11.050781 110 11.238281 110 C 11.363281 110 11.449219 110.0625 11.449219 110.269531 C 11.449219 110.457031 11.300781 110.957031 10.90625 112.1875 L 10.136719 114.667969 L 11.574219 114.667969 C 12.261719 112.355469 12.34375 112.144531 12.78125 111.394531 C 13.28125 110.5 13.761719 110 14.136719 110 C 14.261719 110 14.40625 110.125 14.40625 110.25 C 14.40625 110.3125 14.363281 110.457031 14.324219 110.605469 L 13.78125 112.167969 C 13.53125 112.9375 13.34375 113.625 13.34375 113.980469 C 13.34375 114.542969 13.636719 114.769531 14.15625 114.769531 C 14.886719 114.769531 15.449219 114.375 16.074219 113.207031 Z M 15.824219 113.042969 "/>
<path style=" stroke:none;fill-rule:nonzero;fill:rgb(0%,0%,0%);fill-opacity:1;" d="M 265.105469 220.019531 L 262.355469 220.019531 L 262.355469 220.355469 C 262.875 220.375 263.019531 220.4375 263.019531 220.644531 C 263.019531 221 262.5 221.5 260.832031 222.832031 L 262.480469 216.6875 C 261.457031 216.917969 260.730469 217.019531 259.6875 217.082031 L 259.6875 217.4375 L 260.144531 217.4375 C 260.417969 217.4375 260.542969 217.519531 260.542969 217.894531 C 260.542969 218.019531 260.542969 218.125 260.457031 218.457031 L 258.355469 226 L 259.980469 226 L 260.644531 223.5 L 261.167969 223.125 C 261.605469 225.457031 261.980469 226.105469 262.8125 226.105469 C 263.480469 226.105469 264.0625 225.730469 264.644531 224.457031 L 264.355469 224.3125 C 264 224.9375 263.75 225.167969 263.5 225.167969 C 263.207031 225.167969 262.980469 224.730469 262.457031 222.125 L 263.3125 221.355469 C 264.207031 220.542969 264.5 220.417969 265.105469 220.355469 Z M 265.105469 220.019531 "/>
<path style=" stroke:none;fill-rule:nonzero;fill:rgb(0%,0%,0%);fill-opacity:1;" d="M 492.679688 67.269531 L 490.222656 67.269531 L 490.222656 67.582031 C 490.679688 67.605469 490.804688 67.667969 490.804688 67.855469 C 490.804688 68.167969 490.347656 68.625 488.828125 69.8125 L 490.328125 64.269531 C 489.390625 64.480469 488.742188 64.582031 487.804688 64.644531 L 487.804688 64.957031 L 488.222656 64.957031 C 488.453125 64.957031 488.578125 65.042969 488.578125 65.375 C 488.578125 65.5 488.578125 65.582031 488.492188 65.875 L 486.617188 72.667969 L 488.078125 72.667969 L 488.679688 70.417969 L 489.140625 70.082031 C 489.535156 72.1875 489.867188 72.769531 490.617188 72.769531 C 491.222656 72.769531 491.742188 72.417969 492.285156 71.269531 L 492.015625 71.144531 C 491.679688 71.707031 491.472656 71.917969 491.242188 71.917969 C 490.972656 71.917969 490.765625 71.519531 490.304688 69.1875 L 491.054688 68.5 C 491.890625 67.75 492.140625 67.644531 492.679688 67.582031 Z M 492.679688 67.269531 "/>
<path style=" stroke:none;fill-rule:nonzero;fill:rgb(0%,0%,0%);fill-opacity:1;" d="M 188.367188 113.589844 C 188.417969 113.203125 188.5 112.820312 188.617188 112.445312 C 188.742188 112.070312 188.914062 111.734375 189.136719 111.445312 C 189.355469 111.140625 189.625 110.898438 189.949219 110.714844 C 190.265625 110.523438 190.65625 110.421875 191.117188 110.421875 C 191.585938 110.421875 192.074219 110.507812 192.574219 110.671875 C 193.074219 110.828125 193.578125 111 194.09375 111.195312 C 194.605469 111.390625 195.105469 111.5625 195.59375 111.714844 C 196.078125 111.871094 196.539062 111.945312 196.96875 111.945312 C 197.4375 111.945312 197.804688 111.792969 198.054688 111.484375 C 198.304688 111.167969 198.46875 110.792969 198.554688 110.359375 L 199.636719 110.359375 C 199.578125 110.765625 199.492188 111.152344 199.367188 111.527344 C 199.25 111.890625 199.085938 112.214844 198.867188 112.507812 C 198.640625 112.796875 198.367188 113.039062 198.03125 113.214844 C 197.710938 113.382812 197.324219 113.464844 196.867188 113.464844 C 196.417969 113.464844 195.933594 113.390625 195.40625 113.234375 C 194.875 113.070312 194.351562 112.898438 193.824219 112.714844 C 193.292969 112.523438 192.792969 112.339844 192.324219 112.171875 C 191.851562 112.007812 191.433594 111.921875 191.074219 111.921875 C 190.617188 111.921875 190.246094 112.101562 189.96875 112.445312 C 189.6875 112.792969 189.523438 113.171875 189.46875 113.589844 Z M 188.367188 109.757812 C 188.417969 109.371094 188.5 108.984375 188.617188 108.609375 C 188.742188 108.234375 188.914062 107.902344 189.136719 107.609375 C 189.355469 107.308594 189.625 107.0625 189.949219 106.882812 C 190.265625 106.6875 190.65625 106.589844 191.117188 106.589844 C 191.585938 106.589844 192.074219 106.671875 192.574219 106.839844 C 193.074219 106.996094 193.578125 107.167969 194.09375 107.359375 C 194.605469 107.542969 195.105469 107.714844 195.59375 107.882812 C 196.078125 108.039062 196.539062 108.109375 196.96875 108.109375 C 197.4375 108.109375 197.804688 107.960938 198.054688 107.652344 C 198.304688 107.335938 198.46875 106.960938 198.554688 106.527344 L 199.636719 106.527344 C 199.578125 106.933594 199.492188 107.320312 199.367188 107.695312 C 199.25 108.058594 199.085938 108.382812 198.867188 108.671875 C 198.640625 108.964844 198.367188 109.195312 198.03125 109.359375 C 197.710938 109.527344 197.324219 109.609375 196.867188 109.609375 C 196.417969 109.609375 195.933594 109.539062 195.40625 109.382812 C 194.875 109.230469 194.351562 109.058594 193.824219 108.859375 C 193.292969 108.667969 192.792969 108.496094 192.324219 108.339844 C 191.851562 108.171875 191.433594 108.089844 191.074219 108.089844 C 190.617188 108.089844 190.246094 108.265625 189.96875 108.609375 C 189.6875 108.960938 189.523438 109.339844 189.46875 109.757812 Z M 188.367188 109.757812 "/>
<path style=" stroke:none;fill-rule:nonzero;fill:rgb(0%,0%,0%);fill-opacity:1;" d="M 310.1875 79.125 L 311.207031 80.144531 L 315.082031 76.269531 L 318.957031 80.144531 L 319.980469 79.125 L 316.105469 75.25 L 319.957031 71.417969 L 318.9375 70.375 L 315.082031 74.230469 L 311.230469 70.375 L 310.207031 71.417969 L 314.0625 75.25 Z M 310.1875 79.125 "/>
</g>
</svg>
